# xmcd
#
# Track frame offsets:
# 150
# 11915
# 27912
# 43590
# 59047
# 74792
# 87670
# 99462
# 114052
# 130037
# 144672
# 159132
#
# Disc length: 2331 seconds
#
#
# Revision: 0
# Processed by: cddbd v1.5.1PL2 Copyright (c) Steve Scherf et al.
# Submitted via: FreeRIP 2.942 
#
DISCID=a509190c
DTITLE=Claudio Villa - Arrivederci Roma
DYEAR=1997
DGENRE=Folklore
TTITLE0=Nanni'
TTITLE1=Carrozzella Romana
TTITLE2=Arrivederci Roma
TTITLE3=Quanno a Roma 'na maschietta te vo' bene
TTITLE4=Fontane Romane
TTITLE5=Stornellata Romana
TTITLE6=Roma sei sempre tu
TTITLE7=Vetturino Romano
TTITLE8=Casa mia (casetta de' trastevere)
TTITLE9=Romanina del Bajon
TTITLE10=Piazza di Spagna
TTITLE11=Rondinella Forestiera
EXTD=
EXTT0=
EXTT1=
EXTT2=
EXTT3=
EXTT4=
EXTT5=
EXTT6=
EXTT7=
EXTT8=
EXTT9=
EXTT10=
EXTT11=
PLAYORDER=
